# Left hand, metres, palm centre at origin: fingers -y, palm facing -x, thumb toward +z.
# From "hand topology technical demonstration" (handref2.fbx, Splayed mesh), scaled and trimmed past the wrist.
# faces re-oriented consistently, outward (counter-clockwise).
v 0.00799 0.08404 0.03024
v 0.03109 0.08334 -0.00510
v -0.00252 0.08455 -0.00245
v 0.02357 0.08328 -0.02061
v 0.02369 0.08283 0.02763
v -0.00168 0.08489 0.01648
v 0.00654 0.08339 -0.01715
v 0.03293 0.08267 0.01210
v 0.02166 0.10519 0.02657
v 0.03011 0.10521 0.00977
v -0.00916 0.10544 -0.00134
v 0.02899 0.10546 -0.00748
v 0.01922 0.10521 -0.02383
v -0.00012 0.10552 -0.01794
v 0.00441 0.10589 0.03075
v -0.00671 0.10580 0.01806
v 0.02029 0.06127 -0.02086
v 0.03475 0.05928 -0.00345
v 0.03564 0.06126 0.01378
v 0.02346 0.06496 0.03137
v 0.00778 0.06733 0.03184
v -0.00034 0.06843 0.01585
v 0.00024 0.06746 -0.00327
v 0.00813 0.06431 -0.01843
v -0.00992 -0.03624 -0.00278
v -0.01055 -0.11107 -0.00119
v -0.01057 -0.03661 0.01167
v -0.01055 -0.11107 0.00792
v 0.00595 -0.03325 0.01337
v -0.00239 -0.11384 0.00827
v 0.00609 -0.03299 -0.00427
v -0.00239 -0.11384 -0.00154
v -0.01172 -0.02926 -0.02624
v -0.01072 -0.09953 -0.03938
v -0.01082 -0.03520 -0.01042
v -0.01072 -0.10172 -0.03071
v 0.00538 -0.03211 -0.00906
v -0.00270 -0.10515 -0.03120
v 0.00399 -0.02658 -0.02812
v -0.00270 -0.10279 -0.04057
v -0.01125 -0.03527 0.02015
v -0.01083 -0.09747 0.03991
v -0.00798 -0.02557 0.03623
v -0.01083 -0.09540 0.04848
v 0.00481 -0.02782 0.03771
v -0.00304 -0.09904 0.04969
v 0.00540 -0.03300 0.01805
v -0.00304 -0.10127 0.04049
v -0.01001 -0.01232 -0.04479
v -0.01100 -0.06010 -0.07288
v -0.01111 -0.02104 -0.03583
v -0.01100 -0.06395 -0.06634
v 0.00155 -0.02127 -0.03422
v -0.00557 -0.06706 -0.06779
v 0.00009 -0.01284 -0.04706
v -0.00556 -0.06287 -0.07493
v 0.00383 0.05343 -0.01913
v 0.01527 0.00646 -0.02280
v -0.00991 -0.00681 -0.04184
v -0.00971 -0.00008 -0.03913
v -0.00568 0.02300 -0.03551
v -0.00374 0.03048 -0.03287
v 0.01738 0.01382 -0.02150
v 0.01520 0.01129 -0.02691
v 0.01067 -0.00599 -0.03193
v 0.00863 -0.01271 -0.03320
v -0.01371 -0.02296 -0.02758
v -0.01399 -0.01703 -0.03023
v -0.01183 0.01622 -0.02331
v -0.00874 0.02893 -0.02030
v -0.00937 0.01183 0.00782
v -0.00913 0.00111 0.00880
v -0.01405 -0.02753 0.01605
v -0.01351 -0.03105 0.01947
v 0.02015 0.00854 -0.00449
v 0.01779 0.00259 -0.00974
v 0.01363 -0.01596 -0.01114
v 0.01158 -0.02302 -0.01087
v -0.00526 0.02005 -0.00512
v -0.00737 0.00536 -0.00575
v -0.01340 -0.02315 -0.00658
v -0.01260 -0.02867 -0.00325
v 0.00872 -0.01920 0.03602
v 0.01058 -0.01228 0.03557
v 0.01590 0.00587 0.03019
v 0.01842 0.01363 0.02914
v 0.02080 0.00803 0.01295
v 0.01797 0.00242 0.02000
v 0.01499 -0.01668 0.02143
v 0.01226 -0.02420 0.02091
v 0.01378 -0.02454 0.00973
v 0.01615 -0.01759 0.00859
v 0.01937 0.00063 0.00809
v 0.00393 -0.01925 -0.03021
v -0.01129 -0.02428 -0.03115
v 0.01896 0.00079 0.00037
v 0.01540 -0.01769 -0.00072
v 0.01296 -0.02469 -0.00168
v -0.01312 -0.01819 -0.03400
v 0.02477 0.03419 -0.01154
v -0.01305 -0.02755 -0.00990
v 0.00125 -0.00662 -0.04338
v 0.00225 0.00035 -0.04045
v 0.00553 0.02073 -0.03639
v 0.00717 0.02717 -0.03370
v -0.00971 -0.02089 0.03435
v -0.01064 -0.01733 0.03279
v -0.01513 0.00074 0.02754
v -0.01735 0.00611 0.02740
v 0.01060 -0.01976 -0.02353
v 0.01263 -0.01309 -0.02113
v 0.01643 0.00530 -0.01796
v 0.01619 0.04894 -0.02084
v -0.01353 -0.03134 0.01270
v -0.00174 0.04778 -0.01646
v 0.01078 -0.00831 -0.02646
v 0.00880 -0.01335 -0.02811
v -0.01359 -0.02154 -0.03133
v -0.00992 -0.03469 -0.00650
v 0.00610 -0.02572 -0.00619
v -0.01262 -0.02922 -0.00648
v 0.01026 -0.02011 -0.00586
v 0.01223 -0.01522 -0.00556
v 0.01829 -0.00029 -0.00421
v 0.00610 -0.02733 0.01536
v -0.00815 -0.03364 0.01562
v -0.01314 -0.03219 0.01602
v 0.01898 -0.00034 0.01336
v 0.01322 -0.01603 0.01472
v 0.01083 -0.02145 0.01508
v -0.00350 -0.01859 0.03737
v 0.00065 -0.01937 0.03772
v 0.00775 0.01405 0.04355
v -0.00754 0.00720 0.04429
v 0.00143 -0.01530 0.03766
v 0.00090 -0.01036 0.03810
v 0.00411 0.00686 0.03980
v -0.00336 -0.01479 0.03738
v -0.00359 -0.01086 0.03774
v -0.00621 0.00091 0.04051
v 0.00103 0.03301 0.06394
v -0.01248 0.03358 0.06322
v 0.00243 0.01650 0.05631
v -0.01232 0.01234 0.05448
v -0.00268 0.05209 -0.00334
v -0.00048 0.05857 -0.00329
v -0.00653 0.05402 0.00939
v -0.00314 0.05974 0.01413
v 0.03090 0.04723 -0.00363
v 0.02756 0.03685 -0.00394
v 0.02814 0.03661 0.01272
v 0.03321 0.04780 0.01495
v -0.01828 0.01420 0.09982
v -0.02483 0.01399 0.09582
v -0.01511 0.00362 0.09560
v -0.02159 0.00333 0.09159
v 0.02039 0.05288 0.03569
v 0.01274 0.04195 0.04826
v 0.02319 0.03909 0.02747
v 0.02087 0.03150 0.02904
v -0.01351 0.04806 0.02855
v -0.00795 0.05410 0.02724
v -0.00574 0.04392 0.04782
v 0.00110 0.05767 0.03237
v -0.00397 0.04404 -0.00399
v -0.00491 0.04165 -0.01754
v -0.00847 0.04545 0.00382
v 0.00042 0.04521 -0.02513
v 0.01226 0.04143 -0.02561
v 0.02202 0.02742 -0.01584
v 0.02482 0.02639 -0.00410
v 0.02553 0.02657 0.01225
v -0.01189 -0.07001 -0.00292
v -0.01199 -0.06142 -0.00288
v -0.01121 -0.06583 -0.00301
v -0.01204 -0.06136 0.01090
v -0.01189 -0.06988 0.01053
v -0.01122 -0.06569 0.01085
v 0.00000 -0.07115 0.01141
v 0.00069 -0.06171 0.01181
v 0.00066 -0.06653 0.01161
v 0.00079 -0.06187 -0.00386
v 0.00004 -0.07129 -0.00387
v 0.00071 -0.06669 -0.00388
v -0.01206 -0.08592 0.00961
v -0.01192 -0.09478 0.00922
v -0.01138 -0.09042 0.00939
v -0.01192 -0.09478 -0.00247
v -0.01206 -0.08595 -0.00268
v -0.01138 -0.09043 -0.00257
v -0.00143 -0.08595 -0.00352
v -0.00199 -0.09550 -0.00334
v -0.00154 -0.09062 -0.00337
v -0.00199 -0.09550 0.01010
v -0.00142 -0.08592 0.01047
v -0.00154 -0.09061 0.01019
v -0.01238 -0.05404 -0.03098
v -0.01214 -0.06245 -0.03269
v -0.01152 -0.05838 -0.03198
v -0.01220 -0.05796 -0.01693
v -0.01198 -0.06589 -0.01946
v -0.01135 -0.06205 -0.01816
v 0.00041 -0.05845 -0.01633
v -0.00025 -0.06724 -0.01896
v 0.00037 -0.06295 -0.01772
v -0.00042 -0.06335 -0.03393
v 0.00015 -0.05425 -0.03224
v 0.00016 -0.05893 -0.03311
v -0.01234 -0.07943 -0.02326
v -0.01215 -0.08769 -0.02570
v -0.01167 -0.08362 -0.02444
v -0.01239 -0.07627 -0.03555
v -0.01215 -0.08476 -0.03723
v -0.01168 -0.08055 -0.03646
v -0.00201 -0.08529 -0.03828
v -0.00145 -0.07604 -0.03644
v -0.00150 -0.08055 -0.03728
v -0.00141 -0.07963 -0.02242
v -0.00201 -0.08866 -0.02503
v -0.00149 -0.08401 -0.02372
v -0.01207 -0.06405 0.02888
v -0.01236 -0.05649 0.02630
v -0.01148 -0.06041 0.02752
v -0.01221 -0.05233 0.04097
v -0.01207 -0.06070 0.04266
v -0.01146 -0.05670 0.04200
v -0.00058 -0.06178 0.04388
v 0.00016 -0.05291 0.04228
v 0.00005 -0.05747 0.04308
v 0.00014 -0.05720 0.02557
v -0.00057 -0.06552 0.02834
v 0.00005 -0.06141 0.02700
v -0.01238 -0.07315 0.04514
v -0.01213 -0.08155 0.04668
v -0.01168 -0.07736 0.04599
v -0.01213 -0.08434 0.03510
v -0.01239 -0.07618 0.03253
v -0.01169 -0.08030 0.03375
v -0.00150 -0.07640 0.03163
v -0.00210 -0.08531 0.03441
v -0.00155 -0.08069 0.03301
v -0.00211 -0.08210 0.04772
v -0.00151 -0.07294 0.04603
v -0.00156 -0.07737 0.04680
v -0.01086 -0.03626 -0.06107
v -0.01114 -0.02991 -0.05758
v -0.01034 -0.03322 -0.05940
v -0.01139 -0.03644 -0.04661
v -0.01093 -0.04204 -0.05133
v -0.01044 -0.03937 -0.04903
v -0.00306 -0.04301 -0.05124
v -0.00270 -0.03701 -0.04646
v -0.00259 -0.04007 -0.04897
v -0.00254 -0.02966 -0.05890
v -0.00303 -0.03644 -0.06244
v -0.00253 -0.03317 -0.06068
v -0.01130 -0.04875 -0.05583
v -0.01140 -0.05543 -0.06007
v -0.01076 -0.05209 -0.05795
v -0.01137 -0.05042 -0.06864
v -0.01124 -0.04345 -0.06499
v -0.01072 -0.04693 -0.06681
v -0.00360 -0.04318 -0.06600
v -0.00419 -0.05062 -0.06987
v -0.00360 -0.04679 -0.06781
v -0.00420 -0.05649 -0.05984
v -0.00363 -0.04932 -0.05539
v -0.00362 -0.05274 -0.05761
v -0.00726 0.01693 -0.03660
v 0.01355 0.00681 -0.02909
v -0.01468 0.00577 -0.02422
v -0.01341 -0.00759 0.01212
v 0.01629 -0.00380 -0.00945
v -0.01150 -0.00530 -0.00567
v 0.01338 0.00020 0.03350
v 0.01676 -0.00405 0.01955
v 0.01790 -0.00541 0.00912
v 0.01735 -0.00532 -0.00066
v 0.00441 0.01536 -0.03754
v -0.01343 -0.00688 0.02940
v 0.01484 -0.00027 -0.01968
v 0.01412 0.00278 -0.02375
v 0.01686 -0.00425 -0.00467
v 0.01773 -0.00441 0.01363
v 0.00107 0.00032 0.03950
v -0.00553 -0.00315 0.03946
v 0.00096 -0.04980 0.02339
v -0.01256 -0.04716 0.02337
v -0.01192 -0.04113 0.03816
v 0.00104 -0.04501 0.04043
v 0.00193 -0.05227 -0.00342
v -0.01173 -0.05027 -0.00249
v -0.01202 -0.05044 0.01108
v 0.00175 -0.05223 0.01176
v -0.01232 -0.07798 -0.00278
v -0.01234 -0.07791 0.01000
v -0.00077 -0.07859 -0.00367
v -0.00078 -0.07852 0.01087
v -0.01261 -0.07004 0.03081
v -0.01260 -0.06693 0.04378
v -0.00116 -0.07090 0.03007
v -0.00117 -0.06736 0.04485
v 0.00092 -0.04548 -0.03028
v -0.01268 -0.04318 -0.02847
v -0.01233 -0.04792 -0.01394
v 0.00119 -0.04983 -0.01403
v -0.01260 -0.06937 -0.03399
v -0.01250 -0.07260 -0.02147
v -0.00105 -0.06970 -0.03506
v -0.00095 -0.07338 -0.02079
v -0.00200 -0.02383 -0.05537
v -0.01139 -0.02213 -0.05263
v -0.01202 -0.02963 -0.04147
v -0.00231 -0.03154 -0.04242
v -0.01146 -0.03977 -0.06296
v -0.01152 -0.04523 -0.05360
v -0.00344 -0.03977 -0.06417
v -0.00347 -0.04605 -0.05334
v -0.01360 0.02281 0.08561
v -0.00961 0.02658 0.07799
v -0.01078 0.02476 0.08213
v -0.01989 0.02671 0.07562
v -0.02265 0.02254 0.08341
v -0.02100 0.02465 0.07963
v -0.01001 0.00881 0.07986
v -0.00643 0.01151 0.07138
v -0.00736 0.01030 0.07604
v -0.01717 0.00921 0.06792
v -0.01865 0.00643 0.07685
v -0.01735 0.00775 0.07253
v -0.01635 0.01896 0.09243
v -0.02468 0.01859 0.09024
v -0.01281 0.00610 0.08723
v -0.02064 0.00398 0.08438
v -0.00315 0.01359 0.06423
v -0.00648 0.02874 0.07170
v -0.01695 0.02929 0.07006
v -0.01559 0.01123 0.06168
v -0.01123 -0.05962 -0.06285
v -0.00469 -0.06170 -0.06318
v -0.01121 -0.05491 -0.07087
v -0.00468 -0.05616 -0.07261
v -0.01143 -0.09457 -0.02799
v -0.00223 -0.09665 -0.02768
v -0.01143 -0.09193 -0.03842
v -0.00223 -0.09362 -0.03966
v -0.01132 -0.10271 0.00878
v -0.00207 -0.10431 0.00961
v -0.01132 -0.10271 -0.00204
v -0.00208 -0.10431 -0.00287
v -0.01146 -0.08825 0.04772
v -0.00243 -0.09015 0.04895
v -0.01146 -0.09077 0.03730
v -0.00242 -0.09303 0.03705
v -0.01087 -0.04446 -0.00225
v -0.01136 -0.04471 0.01096
v 0.00336 -0.04240 0.01167
v 0.00361 -0.04242 -0.00304
v -0.01215 -0.03632 -0.02671
v -0.01152 -0.04135 -0.01233
v 0.00263 -0.04084 -0.01198
v 0.00222 -0.03670 -0.02820
v -0.01206 -0.04261 0.02239
v -0.01059 -0.03536 0.03740
v 0.00263 -0.03708 0.03905
v 0.00230 -0.04232 0.02147
v -0.01088 -0.01816 -0.04936
v -0.01188 -0.02606 -0.03942
v -0.00147 -0.02627 -0.03915
v -0.00104 -0.01835 -0.05100
v 0.01208 0.00073 -0.03045
v -0.01495 -0.01643 0.01372
v 0.01475 -0.00967 -0.01004
v -0.01364 -0.01402 -0.00628
v 0.01564 -0.01012 0.02014
v 0.01601 -0.01118 -0.00093
v 0.01254 -0.00262 -0.02503
v 0.01443 -0.00961 -0.00518
v -0.00871 0.00882 -0.03719
v -0.01533 -0.00676 -0.02645
v 0.01211 -0.00617 0.03446
v 0.01667 -0.01127 0.00925
v 0.00334 0.00823 -0.03843
v -0.01186 -0.01266 0.03104
v 0.01359 -0.00617 -0.02069
v 0.01544 -0.01004 0.01422
v -0.00009 -0.00561 0.03879
v -0.00472 -0.00703 0.03850
v -0.01035 0.01118 0.05050
v 0.00508 0.01720 0.05259
v -0.00928 0.03727 0.05753
v 0.00382 0.03498 0.06086
v 0.00769 0.05942 -0.01905
v 0.01923 0.05547 -0.02062
v 0.00084 0.06326 -0.00344
v -0.00043 0.06425 0.01555
v 0.03536 0.05531 0.01438
v 0.03398 0.05346 -0.00365
v 0.02255 0.05995 0.03311
v 0.00667 0.06285 0.03235
v 0.03475 0.07143 0.01305
v 0.03237 0.07514 -0.00506
v 0.02353 0.07561 -0.02043
v 0.00806 0.07321 -0.01769
v -0.00069 0.07450 -0.00296
v -0.00066 0.07514 0.01609
v 0.00828 0.07442 0.03102
v 0.02397 0.07264 0.02945
v 0.00980 -0.03084 -0.01575
v 0.00936 -0.02913 -0.02204
v 0.00070 -0.09983 -0.03846
v 0.00070 -0.10154 -0.03165
v 0.01200 -0.02295 -0.01538
v 0.01277 -0.02405 0.02572
v 0.01021 -0.03205 0.02535
v 0.01384 -0.02572 0.00212
v 0.01111 -0.03359 0.00143
v 0.01117 -0.03358 0.00723
v 0.01458 -0.00944 -0.01392
v 0.01364 -0.01568 -0.01475
v 0.00991 -0.03078 0.03191
v 0.01229 -0.02287 0.03063
v 0.01399 -0.01528 0.02986
v 0.01452 -0.00303 0.02893
v 0.01549 0.00080 0.02786
v 0.01501 -0.00986 0.02491
v 0.01468 -0.01636 0.02555
v 0.01411 -0.02563 0.00600
v 0.01605 -0.01835 0.00548
v 0.01763 -0.00688 0.00574
v 0.01842 -0.00310 0.00556
v 0.01653 -0.01214 0.00245
v 0.01581 -0.01841 0.00242
v 0.01164 -0.02186 -0.01970
v 0.01327 -0.01477 -0.01805
v 0.01517 -0.00302 -0.01656
v 0.01603 0.00066 -0.01586
v 0.01649 -0.00029 -0.01299
v 0.00097 -0.11008 -0.00018
v 0.00097 -0.11008 0.00692
v 0.01828 -0.00306 0.00282
v 0.00035 -0.09783 0.04126
v 0.00035 -0.09635 0.04736
v 0.01630 -0.00039 0.02412
v 0.00425 -0.07237 0.00642
v 0.00502 -0.06655 0.00656
v 0.00579 -0.06026 0.00672
v 0.00505 -0.06661 0.00113
v 0.00427 -0.07241 0.00106
v 0.00583 -0.06032 0.00123
v 0.00105 -0.09727 0.00577
v 0.00215 -0.09089 0.00583
v 0.00266 -0.08521 0.00598
v 0.00215 -0.09090 0.00103
v 0.00105 -0.09727 0.00101
v 0.00266 -0.08522 0.00103
v 0.00459 -0.06156 -0.02273
v 0.00392 -0.06686 -0.02404
v 0.00386 -0.06549 -0.02930
v 0.00451 -0.06015 -0.02814
v 0.00526 -0.05575 -0.02128
v 0.00515 -0.05430 -0.02688
v 0.00222 -0.08325 -0.02819
v 0.00103 -0.08925 -0.02973
v 0.00103 -0.08806 -0.03439
v 0.00221 -0.08203 -0.03297
v 0.00266 -0.07803 -0.02684
v 0.00265 -0.07676 -0.03179
v 0.00365 -0.06377 0.03902
v 0.00433 -0.05882 0.03789
v 0.00505 -0.05347 0.03670
v 0.00434 -0.06019 0.03223
v 0.00365 -0.06508 0.03354
v 0.00507 -0.05492 0.03080
v 0.00087 -0.08480 0.04378
v 0.00211 -0.07890 0.04242
v 0.00254 -0.07387 0.04130
v 0.00211 -0.08007 0.03756
v 0.00087 -0.08592 0.03911
v 0.00254 -0.07509 0.03621
v 0.00712 -0.05216 0.00144
v 0.00344 -0.07882 0.00105
v 0.00344 -0.07879 0.00618
v 0.00879 -0.04311 0.00686
v 0.00082 -0.10381 0.00617
v 0.00082 -0.10381 0.00057
v 0.00621 -0.04687 -0.02524
v 0.00322 -0.07113 -0.03051
v 0.00325 -0.07243 -0.02545
v 0.00776 -0.03999 -0.01772
v 0.00067 -0.09546 -0.03088
v 0.00067 -0.09410 -0.03628
v 0.00622 -0.04845 0.02915
v 0.00306 -0.07007 0.03489
v 0.00306 -0.06881 0.04013
v 0.00765 -0.03975 0.03367
v 0.00042 -0.09070 0.04546
v 0.00042 -0.09194 0.04035
v 0.01564 -0.00414 -0.01327
v 0.01402 -0.00868 0.02951
v 0.01561 -0.00435 0.02441
v 0.01674 -0.01215 0.00570
v 0.01745 -0.00685 0.00259
v 0.01418 -0.00834 -0.01734
v 0.00777 -0.04116 0.02742
v 0.00616 -0.04700 0.03520
v 0.00881 -0.04316 0.00162
v 0.00709 -0.05211 0.00678
v 0.00761 -0.03864 -0.02349
v 0.00632 -0.04830 -0.01953
v 0.03322 0.05589 -0.00885
v 0.02745 0.05616 -0.01903
v 0.00883 -0.01111 -0.03714
v 0.00664 -0.01832 -0.03940
v 0.01692 0.01992 -0.02612
v 0.01501 0.01497 -0.02925
v 0.01170 0.00265 -0.03323
v 0.01033 -0.00418 -0.03508
v 0.00625 -0.01548 -0.04391
v 0.00777 -0.00899 -0.04076
v 0.00916 -0.00216 -0.03815
v 0.01172 0.01160 -0.03463
v 0.01331 0.01781 -0.03255
v 0.01507 0.02339 -0.02956
v 0.02693 0.04062 -0.01058
v 0.02417 0.03808 -0.01558
v 0.02025 0.03659 -0.02208
v 0.02404 0.04410 -0.01762
v 0.02142 0.03171 -0.01945
v 0.02840 0.04624 -0.01113
v 0.02661 0.05207 -0.01775
v -0.00174 -0.06181 -0.07311
v -0.00174 -0.06486 -0.06782
v 0.03130 0.05219 -0.01004
v 0.00154 -0.04117 -0.05515
v 0.00204 -0.03776 -0.05293
v 0.00262 -0.03402 -0.05042
v 0.00206 -0.03537 -0.05701
v 0.00155 -0.03889 -0.05906
v 0.00265 -0.03149 -0.05478
v -0.00101 -0.05579 -0.06382
v 0.00042 -0.05128 -0.06129
v 0.00079 -0.04757 -0.05907
v 0.00042 -0.04922 -0.06482
v -0.00101 -0.05371 -0.06735
v 0.00080 -0.04544 -0.06275
v 0.00354 -0.02690 -0.05196
v 0.00116 -0.04213 -0.06090
v 0.00115 -0.04431 -0.05711
v 0.00470 -0.02442 -0.04391
v -0.00159 -0.06027 -0.06590
v -0.00158 -0.05781 -0.07012
v 0.01318 0.00908 -0.03168
v 0.01042 0.00488 -0.03606
v 0.00466 -0.02181 -0.04827
v 0.00352 -0.02947 -0.04746
v 0.03482 0.06195 -0.00990
v 0.02974 0.06196 -0.01999
v -0.01798 0.01604 0.03815
v -0.01824 0.01511 0.03069
v -0.02084 0.01662 0.05723
v -0.02012 0.02759 0.06169
v -0.01985 0.01714 0.05303
v -0.01627 0.01832 0.01467
v -0.02617 0.00620 0.08754
v -0.02749 0.01354 0.09103
v -0.01736 0.03761 0.03076
v -0.01655 0.03566 0.03948
v -0.01873 0.02954 0.05715
v -0.01520 0.03847 0.01623
v -0.02364 0.02072 0.07731
v -0.02626 0.01847 0.08119
v -0.02394 0.02278 0.07218
v -0.02247 0.01159 0.07331
v -0.02499 0.00968 0.07741
v -0.02331 0.01337 0.06787
v -0.02746 0.01567 0.08683
v -0.02194 0.02527 0.06670
v -0.02609 0.00751 0.08321
v -0.02206 0.01546 0.06221
v 0.00721 0.03778 0.05657
v -0.00914 0.00951 0.04817
v 0.00622 0.01647 0.04936
v -0.00737 0.03974 0.05401
v -0.01858 0.01729 0.04735
v -0.01691 0.03191 0.05091
v 0.01068 0.04095 0.05171
v -0.00835 0.00839 0.04672
v 0.00764 0.01554 0.04586
v -0.00614 0.04127 0.05184
v -0.01812 0.01672 0.04297
v -0.01647 0.03371 0.04523
v -0.01172 -0.05849 0.04230
v -0.00024 -0.05946 0.04345
v -0.00024 -0.06330 0.02762
v -0.01173 -0.06203 0.02813
v 0.00400 -0.06119 0.03843
v 0.00401 -0.06253 0.03286
v -0.01182 -0.05498 0.04161
v 0.00008 -0.05545 0.04275
v 0.00007 -0.05955 0.02636
v -0.01189 -0.05881 0.02702
v 0.00465 -0.05632 0.03734
v 0.00467 -0.05773 0.03156
v -0.01193 -0.07925 0.04631
v -0.00178 -0.07943 0.04722
v -0.00178 -0.08271 0.03360
v -0.01193 -0.08213 0.03435
v 0.00179 -0.08150 0.04301
v 0.00179 -0.08265 0.03825
v -0.01201 -0.07545 0.04561
v -0.00154 -0.07532 0.04645
v -0.00154 -0.07871 0.03236
v -0.01201 -0.07844 0.03319
v 0.00231 -0.07650 0.04188
v 0.00231 -0.07769 0.03691
v -0.01169 -0.08845 0.00948
v -0.00151 -0.08851 0.01031
v -0.00151 -0.08853 -0.00344
v -0.01168 -0.08847 -0.00262
v 0.00238 -0.08821 0.00590
v 0.00238 -0.08822 0.00103
v -0.01167 -0.09234 0.00932
v -0.00172 -0.09271 0.01017
v -0.00173 -0.09272 -0.00338
v -0.01166 -0.09235 -0.00254
v 0.00189 -0.09370 0.00579
v 0.00189 -0.09371 0.00103
v -0.01152 -0.06750 0.01072
v 0.00037 -0.06859 0.01153
v 0.00041 -0.06875 -0.00389
v -0.01151 -0.06763 -0.00298
v 0.00466 -0.06931 0.00650
v 0.00468 -0.06936 0.00109
v -0.01161 -0.06395 0.01087
v 0.00063 -0.06445 0.01171
v 0.00071 -0.06462 -0.00389
v -0.01159 -0.06407 -0.00296
v 0.00536 -0.06363 0.00664
v 0.00540 -0.06369 0.00117
v 0.00037 -0.06100 -0.01711
v 0.00013 -0.05689 -0.03274
v -0.01175 -0.06040 -0.01767
v -0.01191 -0.05664 -0.03158
v 0.00489 -0.05886 -0.02205
v 0.00480 -0.05743 -0.02756
v 0.00010 -0.06490 -0.01829
v -0.00010 -0.06095 -0.03349
v -0.01162 -0.06374 -0.01874
v -0.01178 -0.06018 -0.03230
v 0.00427 -0.06408 -0.02335
v 0.00420 -0.06270 -0.02869
v -0.00146 -0.08201 -0.02312
v -0.00149 -0.07849 -0.03690
v -0.01198 -0.08175 -0.02391
v -0.01201 -0.07864 -0.03606
v 0.00242 -0.08077 -0.02755
v 0.00241 -0.07952 -0.03241
v -0.00170 -0.08603 -0.02426
v -0.00171 -0.08260 -0.03773
v -0.01193 -0.08544 -0.02499
v -0.01193 -0.08243 -0.03681
v 0.00193 -0.08589 -0.02887
v 0.00192 -0.08469 -0.03359
v -0.01063 -0.04062 -0.05012
v -0.00281 -0.04147 -0.05006
v -0.00276 -0.03472 -0.06152
v -0.01055 -0.03464 -0.06019
v 0.00179 -0.03940 -0.05400
v 0.00181 -0.03707 -0.05800
v -0.01087 -0.03817 -0.04803
v -0.00265 -0.03873 -0.04785
v -0.00255 -0.03160 -0.05990
v -0.01071 -0.03187 -0.05865
v 0.00230 -0.03601 -0.05175
v 0.00232 -0.03355 -0.05596
v -0.01100 -0.05051 -0.05695
v -0.00362 -0.05110 -0.05655
v -0.00360 -0.04506 -0.06694
v -0.01095 -0.04529 -0.06596
v 0.00060 -0.04948 -0.06021
v 0.00060 -0.04739 -0.06382
v -0.01108 -0.05365 -0.05894
v -0.00385 -0.05443 -0.05861
v -0.00383 -0.04851 -0.06874
v -0.01104 -0.04855 -0.06767
v 0.00009 -0.05327 -0.06243
v 0.00010 -0.05122 -0.06594
v -0.01153 -0.03834 0.02142
v -0.00915 -0.02999 0.03663
v 0.00365 -0.03274 0.03834
v 0.00350 -0.03796 0.01969
v 0.00875 -0.03529 0.03278
v 0.00896 -0.03663 0.02629
v -0.01022 -0.04063 -0.00219
v -0.01089 -0.04094 0.01098
v 0.00429 -0.03802 0.01256
v 0.00453 -0.03797 -0.00365
v 0.00995 -0.03830 0.00710
v 0.00993 -0.03832 0.00150
v -0.01176 -0.03292 -0.02601
v -0.01100 -0.03818 -0.01158
v 0.00367 -0.03676 -0.01050
v 0.00278 -0.03186 -0.02814
v 0.00877 -0.03539 -0.01668
v 0.00846 -0.03384 -0.02279
v -0.01043 -0.01522 -0.04697
v -0.01141 -0.02325 -0.03782
v -0.00040 -0.02398 -0.03677
v -0.00049 -0.01563 -0.04903
v 0.00565 -0.02146 -0.04161
v 0.00544 -0.01870 -0.04609
v 0.00345 0.02548 0.06053
v -0.02393 0.00855 0.09448
v -0.01640 0.00899 0.09873
v 0.01266 0.02908 0.04589
v 0.01980 0.02192 0.02914
v -0.00556 0.03288 -0.00468
v -0.00767 0.03594 -0.01891
v -0.00989 0.02937 0.00276
v -0.00203 0.03737 -0.02980
v 0.00929 0.03374 -0.03036
v 0.01961 0.02012 -0.01918
v 0.02239 0.01653 -0.00428
v 0.02317 0.01639 0.01240
v -0.00718 0.01956 0.07524
v -0.00828 0.01801 0.07971
v -0.01105 0.01626 0.08341
v -0.01376 0.01304 0.09035
v -0.00408 0.02156 0.06873
v 0.00591 0.02677 0.05766
v 0.01733 0.02931 -0.02637
v 0.01905 0.02521 -0.02316
v -0.02199 0.02194 0.05896
v -0.02805 0.00934 0.08888
v -0.01880 0.02573 0.03102
v -0.01874 0.02541 0.03859
v -0.01663 0.02844 0.01465
v -0.02700 0.01360 0.07876
v -0.02433 0.01577 0.07479
v -0.02499 0.01778 0.06943
v -0.02808 0.01110 0.08442
v -0.02339 0.02017 0.06388
v -0.02088 0.02323 0.05456
v -0.01949 0.02473 0.04800
v 0.00876 0.02819 0.05382
v 0.01169 0.02963 0.04939
v -0.01898 0.02516 0.04350
v 0.01446 0.01500 0.03668
v -0.00900 -0.00992 0.03495
v 0.00589 -0.01732 0.03709
v 0.00270 -0.02283 0.03763
v 0.01599 0.02576 0.03796
v -0.00665 -0.01776 0.03598
v -0.01051 -0.00544 0.03470
v 0.01021 0.00117 0.03665
v 0.00737 -0.01105 0.03703
v -0.00457 -0.02178 0.03689
v -0.01845 0.02569 0.03501
v 0.01232 0.00705 0.03575
v 0.00867 -0.00495 0.03693
v -0.01184 0.00010 0.03474
v -0.01621 0.03636 0.03575
v 0.01433 0.04694 0.04132
v -0.01753 0.01568 0.03490
v 0.01677 0.03618 0.03872
v -0.00998 0.04531 0.03787
v -0.00764 -0.01395 0.03537
v -0.01336 0.00674 0.03588
v -0.00047 0.05034 0.03976
v -0.00642 0.05040 0.03545
v 0.01864 0.04142 0.03665
f 404 24 23 405
f 407 21 20 408
f 406 22 21 407
f 405 23 22 406
f 408 20 19 401
f 401 19 18 402
f 403 17 24 404
f 672 253 536 675
f 1 15 16 6
f 6 16 11 3
f 3 11 14 7
f 2 12 10 8
f 8 10 9 5
f 5 9 15 1
f 7 14 13 4
f 4 13 12 2
f 347 348 194 186
f 296 185 195 298
f 293 176 180 294
f 696 27 25 695
f 350 32 26 349
f 303 207 197 304
f 89 375 426 427
f 702 35 33 701
f 295 189 185 296
f 631 184 448 634
f 349 347 186 188
f 76 273 499 438
f 343 344 219 210
f 309 307 198 206
f 346 40 34 345
f 305 200 203 306
f 308 209 218 310
f 287 230 222 288
f 298 195 453 483
f 182 291 481 450
f 297 295 173 183
f 307 212 209 308
f 34 40 38 36
f 345 343 210 213
f 297 183 449 482
f 301 299 221 231
f 351 352 242 234
f 300 233 243 302
f 289 224 228 290
f 690 43 41 689
f 354 48 42 353
f 311 254 246 312
f 636 181 446 639
f 299 237 233 300
f 630 179 445 633
f 353 351 234 236
f 654 216 468 658
f 317 315 245 255
f 339 340 266 258
f 316 257 267 318
f 313 248 252 314
f 708 51 49 707
f 342 56 50 341
f 317 255 539 548
f 400 164 157 399
f 315 261 257 316
f 103 383 554 521
f 341 339 258 260
f 54 56 532 533
f 104 61 62 105
f 717 160 766 753
f 45 83 751 752
f 50 56 54 52
f 29 125 126 27
f 109 108 762 769
f 131 132 135 138
f 130 125 29 91
f 41 126 125 47
f 168 57 113 169
f 127 114 27 126
f 162 164 148 147
f 117 110 39 94
f 63 112 58 64
f 377 385 111 116
f 116 111 110 117
f 95 118 99 51
f 67 68 99 118
f 719 721 62 70
f 119 121 101 35
f 82 81 101 121
f 43 45 752 758
f 73 114 127 74
f 120 122 98 31
f 122 123 97 98
f 283 124 96 278
f 76 75 96 124
f 51 53 94 95
f 87 88 128 93
f 386 129 92 382
f 129 130 91 92
f 26 32 30 28
f 653 220 463 657
f 692 47 415 694
f 67 101 81 68
f 271 274 80 69
f 69 80 79 70
f 93 96 75 87
f 42 48 46 44
f 85 275 424 425
f 365 290 506 496
f 33 35 101 67
f 49 51 99 59
f 59 99 68 60
f 269 271 69 61
f 85 88 87 86
f 384 107 768 750
f 35 37 120 119
f 107 106 754 768
f 85 86 749 760
f 170 100 150 171
f 61 69 70 62
f 102 59 60 103
f 279 269 61 104
f 660 217 466 664
f 82 114 73 81
f 274 272 72 80
f 84 83 422 423
f 294 180 447 508
f 76 112 63 75
f 80 72 71 79
f 83 45 421 422
f 74 106 107 73
f 272 280 108 72
f 659 219 464 663
f 66 53 514 513
f 402 18 511 557
f 113 394 531 528
f 72 108 109 71
f 106 43 758 754
f 275 85 760 756
f 41 43 106 74
f 49 59 102 55
f 56 342 552 532
f 33 67 118 95
f 65 116 117 66
f 371 377 116 65
f 66 117 94 53
f 334 156 565 579
f 273 76 124 283
f 78 77 123 122
f 37 78 122 120
f 25 82 121 119
f 33 95 94 39
f 89 90 130 129
f 375 89 129 386
f 74 127 126 41
f 90 47 125 130
f 25 119 120 31
f 140 137 133 134
f 389 390 143 144
f 138 135 136 139
f 286 285 137 140
f 83 84 757 751
f 396 148 164 400
f 399 157 152 397
f 25 27 114 82
f 718 719 70 79
f 149 150 525 530
f 149 152 151 150
f 391 142 141 392
f 146 145 147 148
f 115 145 146 57
f 109 769 765 560
f 724 725 87 75
f 65 66 513 518
f 328 330 574 576
f 718 79 71 720
f 334 333 155 156
f 336 337 322 320
f 729 331 153 715
f 338 335 326 328
f 720 71 564 738
f 144 338 580 561
f 730 336 320 726
f 714 156 155 715
f 394 113 57 393
f 393 57 146 395
f 395 146 148 396
f 725 172 160 717
f 731 392 141 713
f 397 152 149 398
f 684 266 541 687
f 161 767 771 162
f 159 157 764 772
f 163 158 764 770
f 157 159 151 152
f 145 165 167 147
f 169 113 528 527
f 150 151 172 171
f 145 115 166 165
f 723 170 171 724
f 115 57 168 166
f 721 168 169 722
f 160 172 151 159
f 167 161 162 147
f 629 630 181 178
f 635 636 180 176
f 631 632 175 184
f 637 638 174 182
f 623 624 196 187
f 617 618 195 185
f 625 626 190 193
f 619 620 189 191
f 291 358 507 481
f 77 78 413 420
f 649 647 205 202
f 643 641 203 200
f 650 649 202 199
f 644 643 200 197
f 648 650 199 208
f 642 644 197 207
f 38 40 411 412
f 373 77 420 419
f 661 659 220 211
f 655 653 218 209
f 662 661 211 214
f 656 655 209 212
f 660 662 214 217
f 654 656 212 216
f 593 594 229 226
f 599 600 228 224
f 595 596 223 232
f 601 602 222 230
f 605 606 244 235
f 611 612 243 233
f 607 608 238 241
f 613 614 237 239
f 665 666 253 250
f 671 672 252 248
f 667 668 247 256
f 673 674 246 254
f 683 684 268 259
f 677 678 267 257
f 685 686 262 265
f 679 680 261 263
f 704 39 410 706
f 361 306 510 490
f 632 629 178 175
f 638 635 176 174
f 613 239 480 616
f 290 228 471 506
f 626 623 187 190
f 620 617 185 189
f 48 354 498 442
f 242 352 497 475
f 596 593 226 223
f 602 599 224 222
f 287 366 505 493
f 607 241 478 610
f 608 605 235 238
f 614 611 233 237
f 666 251 535 669
f 266 340 551 541
f 668 665 250 247
f 674 671 248 246
f 394 17 512 531
f 371 65 518 517
f 686 683 259 262
f 680 677 257 261
f 291 182 174 292
f 388 387 285 286
f 88 276 284 128
f 373 273 283 378
f 64 58 282 270
f 381 275 756 761
f 383 279 522 554
f 372 384 280 272
f 691 365 496 693
f 374 372 272 274
f 383 379 269 279
f 108 280 755 762
f 379 380 271 269
f 227 302 495 469
f 380 374 274 271
f 612 244 476 615
f 128 284 277 93
f 378 283 278 376
f 58 112 281 282
f 698 31 417 700
f 224 289 288 222
f 364 289 290 365
f 366 287 288 363
f 358 291 292 355
f 357 294 508 484
f 176 293 292 174
f 356 293 294 357
f 191 189 295 297
f 239 301 494 480
f 173 295 296 177
f 177 296 298 179
f 642 207 462 646
f 221 299 300 225
f 225 300 302 227
f 239 237 299 301
f 88 85 425 444
f 360 305 306 361
f 200 305 304 197
f 362 303 304 359
f 198 307 308 201
f 606 242 475 609
f 201 308 310 204
f 216 212 307 309
f 710 55 519 712
f 248 313 312 246
f 368 313 314 369
f 370 311 312 367
f 63 64 516 515
f 245 315 316 249
f 249 316 318 251
f 263 261 315 317
f 323 319 321 324
f 324 321 320 322
f 161 167 570 567
f 163 767 763 568
f 726 320 321 727
f 727 321 319 728
f 325 329 330 327
f 327 330 328 326
f 331 332 154 153
f 319 323 332 331
f 322 337 578 573
f 728 319 331 729
f 329 325 333 334
f 713 141 336 730
f 389 144 561 563
f 144 143 335 338
f 141 142 337 336
f 369 314 556 550
f 50 52 339 341
f 264 342 341 260
f 52 54 340 339
f 641 205 457 645
f 34 36 343 345
f 215 346 345 213
f 36 38 344 343
f 310 218 467 489
f 26 28 347 349
f 192 350 349 188
f 28 30 348 347
f 648 208 460 652
f 42 44 351 353
f 240 354 353 236
f 44 46 352 351
f 696 356 357 697
f 698 358 355 695
f 230 287 493 474
f 293 356 355 292
f 704 362 359 701
f 702 360 361 703
f 46 48 442 443
f 305 360 359 304
f 692 366 363 689
f 690 364 365 691
f 309 206 459 488
f 289 364 363 288
f 710 370 367 707
f 708 368 369 709
f 709 369 550 711
f 313 368 367 312
f 123 378 376 97
f 40 346 492 411
f 68 81 374 380
f 647 204 458 651
f 60 68 380 379
f 103 60 379 383
f 81 73 372 374
f 601 230 474 604
f 73 107 384 372
f 104 105 524 523
f 84 381 761 757
f 77 373 378 123
f 139 136 387 388
f 276 375 386 284
f 270 282 377 371
f 280 384 750 755
f 284 386 382 277
f 282 281 385 377
f 746 581 392 731
f 329 334 579 575
f 584 391 392 581
f 582 583 390 389
f 723 63 515 733
f 19 397 398 18
f 23 395 396 22
f 24 393 395 23
f 17 394 393 24
f 20 399 397 19
f 22 396 400 21
f 21 400 399 20
f 2 402 403 4
f 4 403 404 7
f 8 401 402 2
f 5 408 401 8
f 3 405 406 6
f 6 406 407 1
f 1 407 408 5
f 7 404 405 3
f 699 700 417 418
f 482 449 445 483
f 485 486 455 451
f 488 459 458 489
f 705 706 410 409
f 491 492 465 464
f 693 694 415 421
f 494 473 469 495
f 497 498 479 475
f 428 416 433 429
f 430 503 441 431
f 422 414 427 423
f 424 501 444 425
f 418 417 416 428
f 413 434 435 420
f 499 436 437 438
f 421 415 414 422
f 409 410 434 413
f 651 652 460 457
f 645 646 462 461
f 663 664 466 463
f 657 658 468 467
f 633 634 448 446
f 639 640 450 447
f 627 628 454 452
f 621 622 456 453
f 597 598 472 470
f 603 604 474 471
f 609 610 478 476
f 615 616 480 477
f 419 504 436 499
f 500 426 501 424
f 502 432 503 430
f 471 474 493 506
f 447 450 481 508
f 456 482 483 453
f 480 494 495 477
f 461 462 487 510
f 468 488 489 467
f 412 411 492 491
f 440 439 486 485
f 443 442 498 497
f 508 481 507 484
f 510 487 509 490
f 506 493 505 496
f 429 433 432 502
f 423 427 426 500
f 420 435 504 419
f 275 381 500 424
f 90 89 427 414
f 344 38 412 491
f 276 88 444 501
f 91 29 418 428
f 191 297 482 456
f 277 382 502 430
f 92 91 428 429
f 637 182 450 640
f 346 215 465 492
f 278 96 441 503
f 93 277 430 431
f 179 298 483 445
f 78 37 409 413
f 112 76 438 437
f 97 376 432 433
f 697 357 484 699
f 301 231 473 494
f 98 97 433 416
f 302 243 477 495
f 385 281 436 504
f 194 348 485 451
f 273 373 419 499
f 30 32 439 440
f 47 90 414 415
f 624 194 451 627
f 32 350 486 439
f 375 276 501 426
f 31 98 416 417
f 348 30 440 485
f 207 303 487 462
f 376 278 503 432
f 594 227 469 597
f 96 93 431 441
f 303 362 509 487
f 618 196 452 621
f 350 192 455 486
f 625 193 454 628
f 600 229 470 603
f 306 203 461 510
f 381 84 423 500
f 216 309 488 468
f 595 232 472 598
f 382 92 429 502
f 204 310 489 458
f 39 110 434 410
f 703 361 490 705
f 619 191 456 622
f 352 46 443 497
f 110 111 435 434
f 281 112 437 436
f 111 385 504 435
f 219 344 491 464
f 354 240 479 498
f 557 511 512 558
f 711 712 519 514
f 548 539 535 549
f 551 552 545 541
f 514 519 520 513
f 513 520 521 518
f 553 522 523 516
f 516 523 524 515
f 530 525 526 528
f 527 528 526 529
f 534 530 528 531
f 732 527 529 733
f 669 670 538 536
f 675 676 540 537
f 687 688 544 542
f 681 682 546 543
f 517 554 522 553
f 537 540 547 556
f 546 548 549 543
f 533 532 552 551
f 556 547 555 550
f 518 521 554 517
f 511 534 531 512
f 17 403 558 512
f 678 268 542 681
f 398 149 530 534
f 64 270 553 516
f 318 267 543 549
f 254 311 547 540
f 270 371 517 553
f 667 256 538 670
f 685 265 544 688
f 311 370 555 547
f 150 100 526 525
f 55 102 520 519
f 263 317 548 546
f 340 54 533 551
f 102 103 521 520
f 100 170 529 526
f 673 254 540 676
f 403 402 557 558
f 314 252 537 556
f 18 398 534 511
f 722 169 527 732
f 679 263 546 682
f 279 104 523 522
f 251 318 549 535
f 342 264 545 552
f 736 738 564 560
f 744 563 561 734
f 736 560 765 759
f 743 580 576 741
f 742 579 565 735
f 739 572 571 740
f 740 571 573 741
f 739 575 579 742
f 734 561 580 743
f 745 585 563 744
f 582 389 563 585
f 324 322 573 571
f 71 109 560 564
f 338 328 576 580
f 142 391 569 562
f 590 163 568 592
f 154 332 577 566
f 332 323 572 577
f 330 329 575 574
f 323 324 571 572
f 714 154 566 735
f 337 142 562 578
f 391 584 586 569
f 588 582 585 591
f 748 591 585 745
f 588 589 583 582
f 590 584 581 587
f 747 587 581 746
f 716 158 587 747
f 163 590 587 158
f 134 133 589 588
f 737 559 591 748
f 134 588 591 559
f 584 590 592 586
f 231 595 598 473
f 229 594 597 470
f 469 473 598 597
f 221 225 593 596
f 231 221 596 595
f 225 227 594 593
f 228 600 603 471
f 470 472 604 603
f 232 601 604 472
f 223 226 599 602
f 232 223 602 601
f 226 229 600 599
f 475 479 610 609
f 244 606 609 476
f 236 234 605 608
f 240 607 610 479
f 240 236 608 607
f 234 242 606 605
f 476 478 616 615
f 243 612 615 477
f 238 235 611 614
f 241 613 616 478
f 241 238 614 613
f 235 244 612 611
f 193 619 622 454
f 195 618 621 453
f 452 454 622 621
f 190 187 617 620
f 193 190 620 619
f 187 196 618 617
f 192 625 628 455
f 196 624 627 452
f 451 455 628 627
f 188 186 623 626
f 192 188 626 625
f 186 194 624 623
f 445 449 634 633
f 173 177 629 632
f 183 173 632 631
f 177 179 630 629
f 181 630 633 446
f 183 631 634 449
f 184 637 640 448
f 446 448 640 639
f 175 178 635 638
f 184 175 638 637
f 178 181 636 635
f 180 636 639 447
f 457 460 646 645
f 203 641 645 461
f 208 642 646 460
f 208 199 644 642
f 199 202 643 644
f 202 205 641 643
f 458 459 652 651
f 205 647 651 457
f 206 648 652 459
f 206 198 650 648
f 198 201 649 650
f 201 204 647 649
f 463 466 658 657
f 217 214 656 654
f 214 211 655 656
f 211 220 653 655
f 218 653 657 467
f 217 654 658 466
f 464 465 664 663
f 215 213 662 660
f 213 210 661 662
f 210 219 659 661
f 220 659 663 463
f 215 660 664 465
f 255 667 670 539
f 535 539 670 669
f 245 249 665 668
f 253 666 669 536
f 255 245 668 667
f 249 251 666 665
f 256 673 676 538
f 536 538 676 675
f 247 250 671 674
f 256 247 674 673
f 250 253 672 671
f 252 672 675 537
f 265 679 682 544
f 267 678 681 543
f 542 544 682 681
f 262 259 677 680
f 265 262 680 679
f 259 268 678 677
f 264 685 688 545
f 541 545 688 687
f 260 258 683 686
f 264 260 686 685
f 258 266 684 683
f 268 684 687 542
f 496 505 694 693
f 43 690 691 45
f 47 692 689 41
f 45 691 693 421
f 366 692 694 505
f 364 690 689 363
f 29 697 699 418
f 484 507 700 699
f 31 698 695 25
f 27 696 697 29
f 358 698 700 507
f 356 696 695 355
f 37 703 705 409
f 490 509 706 705
f 35 702 703 37
f 39 704 701 33
f 362 704 706 509
f 360 702 701 359
f 550 555 712 711
f 53 709 711 514
f 51 708 709 53
f 55 710 707 49
f 370 710 712 555
f 368 708 707 367
f 568 737 748 592
f 133 716 747 589
f 589 747 746 583
f 592 748 745 586
f 156 714 735 565
f 586 745 744 569
f 562 734 743 578
f 572 739 742 577
f 574 740 741 576
f 575 739 740 574
f 577 742 735 566
f 578 743 741 573
f 567 736 759 763
f 569 744 734 562
f 567 570 738 736
f 105 722 732 524
f 524 732 733 515
f 170 723 733 529
f 583 746 731 390
f 143 713 730 335
f 325 728 729 333
f 327 727 728 325
f 326 726 727 327
f 62 721 722 105
f 63 723 724 75
f 390 731 713 143
f 87 725 717 86
f 154 714 715 153
f 335 730 726 326
f 167 720 738 570
f 333 729 715 155
f 165 718 720 167
f 171 172 725 724
f 165 166 719 718
f 166 168 721 719
f 86 717 753 749
f 770 771 767 163
f 770 764 157 164
f 759 765 559 737
f 763 759 737 568
f 761 756 285 387
f 762 755 286 140
f 753 766 158 716
f 769 762 140 134
f 750 768 139 388
f 768 754 138 139
f 766 772 764 158
f 754 758 131 138
f 751 757 136 135
f 758 752 132 131
f 755 750 388 286
f 765 769 134 559
f 756 760 137 285
f 752 751 135 132
f 763 767 161 567
f 749 753 716 133
f 760 749 133 137
f 757 761 387 136
f 162 771 770 164
f 772 766 160 159

# Connected forearm and upper-arm extension from original wrist boundary
v 0.003746 0.130000 0.033393
v -0.008486 0.130000 0.019434
v -0.011181 0.130000 -0.001906
v -0.001237 0.130000 -0.020166
v 0.020037 0.130000 -0.026645
v 0.030784 0.130000 -0.008660
v 0.032016 0.130000 0.010315
v 0.022721 0.130000 0.028795
v 0.002285 0.170000 0.039208
v -0.012393 0.170000 0.022457
v -0.015627 0.170000 -0.003151
v -0.003694 0.170000 -0.025063
v 0.021834 0.170000 -0.032838
v 0.034731 0.170000 -0.011256
v 0.036209 0.170000 0.011514
v 0.025055 0.170000 0.033690
v 0.001422 0.220000 0.042644
v -0.014702 0.220000 0.024243
v -0.018254 0.220000 -0.003887
v -0.005147 0.220000 -0.027957
v 0.022897 0.220000 -0.036498
v 0.037063 0.220000 -0.012790
v 0.038687 0.220000 0.012222
v 0.026434 0.220000 0.036582
v 0.001754 0.270000 0.041322
v -0.013814 0.270000 0.023556
v -0.017244 0.270000 -0.003604
v -0.004588 0.270000 -0.026844
v 0.022488 0.270000 -0.035090
v 0.036166 0.270000 -0.012200
v 0.037734 0.270000 0.011950
v 0.025904 0.270000 0.035470
v 0.002551 0.300000 0.038150
v -0.011683 0.300000 0.021907
v -0.014819 0.300000 -0.002925
v -0.003248 0.300000 -0.024173
v 0.021508 0.300000 -0.031712
v 0.034013 0.300000 -0.010784
v 0.035447 0.300000 0.011296
v 0.024631 0.300000 0.032800
v 0.002949 0.320000 0.036565
v -0.010617 0.320000 0.021083
v -0.013606 0.320000 -0.002585
v -0.002577 0.320000 -0.022837
v 0.021017 0.320000 -0.030023
v 0.032937 0.320000 -0.010076
v 0.034303 0.320000 0.010969
v 0.023994 0.320000 0.031465
v 0.002750 0.340000 0.037358
v -0.011150 0.340000 0.021495
v -0.014212 0.340000 -0.002755
v -0.002913 0.340000 -0.023505
v 0.021263 0.340000 -0.030868
v 0.033475 0.340000 -0.010430
v 0.034875 0.340000 0.011133
v 0.024312 0.340000 0.032132
v 0.001090 0.380000 0.043965
v -0.015590 0.380000 0.024930
v -0.019265 0.380000 -0.004170
v -0.005705 0.380000 -0.029070
v 0.023305 0.380000 -0.037905
v 0.037960 0.380000 -0.013380
v 0.039640 0.380000 0.012495
v 0.026965 0.380000 0.037695
v -0.000902 0.440000 0.051894
v -0.020918 0.440000 0.029052
v -0.025328 0.440000 -0.005868
v -0.009056 0.440000 -0.035748
v 0.025756 0.440000 -0.046350
v 0.043342 0.440000 -0.016920
v 0.045358 0.440000 0.014130
v 0.030148 0.440000 0.044370
v -0.002230 0.500000 0.057180
v -0.024470 0.500000 0.031800
v -0.029370 0.500000 -0.007000
v -0.011290 0.500000 -0.040200
v 0.027390 0.500000 -0.051980
v 0.046930 0.500000 -0.019280
v 0.049170 0.500000 0.015220
v 0.032270 0.500000 0.048820
v -0.003226 0.560000 0.061144
v -0.027134 0.560000 0.033861
v -0.032401 0.560000 -0.007849
v -0.012966 0.560000 -0.043539
v 0.028616 0.560000 -0.056203
v 0.049621 0.560000 -0.021050
v 0.052029 0.560000 0.016037
v 0.033861 0.560000 0.052157
v -0.002894 0.620000 0.059823
v -0.026246 0.620000 0.033174
v -0.031391 0.620000 -0.007566
v -0.012407 0.620000 -0.042426
v 0.028207 0.620000 -0.054795
v 0.048724 0.620000 -0.020460
v 0.051076 0.620000 0.015765
v 0.033331 0.620000 0.051045
f 16 15 773 774
f 11 16 774 775
f 14 11 775 776
f 13 14 776 777
f 12 13 777 778
f 10 12 778 779
f 9 10 779 780
f 15 9 780 773
f 774 773 781 782
f 775 774 782 783
f 776 775 783 784
f 777 776 784 785
f 778 777 785 786
f 779 778 786 787
f 780 779 787 788
f 773 780 788 781
f 782 781 789 790
f 783 782 790 791
f 784 783 791 792
f 785 784 792 793
f 786 785 793 794
f 787 786 794 795
f 788 787 795 796
f 781 788 796 789
f 790 789 797 798
f 791 790 798 799
f 792 791 799 800
f 793 792 800 801
f 794 793 801 802
f 795 794 802 803
f 796 795 803 804
f 789 796 804 797
f 798 797 805 806
f 799 798 806 807
f 800 799 807 808
f 801 800 808 809
f 802 801 809 810
f 803 802 810 811
f 804 803 811 812
f 797 804 812 805
f 806 805 813 814
f 807 806 814 815
f 808 807 815 816
f 809 808 816 817
f 810 809 817 818
f 811 810 818 819
f 812 811 819 820
f 805 812 820 813
f 814 813 821 822
f 815 814 822 823
f 816 815 823 824
f 817 816 824 825
f 818 817 825 826
f 819 818 826 827
f 820 819 827 828
f 813 820 828 821
f 822 821 829 830
f 823 822 830 831
f 824 823 831 832
f 825 824 832 833
f 826 825 833 834
f 827 826 834 835
f 828 827 835 836
f 821 828 836 829
f 830 829 837 838
f 831 830 838 839
f 832 831 839 840
f 833 832 840 841
f 834 833 841 842
f 835 834 842 843
f 836 835 843 844
f 829 836 844 837
f 838 837 845 846
f 839 838 846 847
f 840 839 847 848
f 841 840 848 849
f 842 841 849 850
f 843 842 850 851
f 844 843 851 852
f 837 844 852 845
f 846 845 853 854
f 847 846 854 855
f 848 847 855 856
f 849 848 856 857
f 850 849 857 858
f 851 850 858 859
f 852 851 859 860
f 845 852 860 853
f 854 853 861 862
f 855 854 862 863
f 856 855 863 864
f 857 856 864 865
f 858 857 865 866
f 859 858 866 867
f 860 859 867 868
f 853 860 868 861
f 868 867 866 865 864 863 862 861
